<?xml version="1.0" standalone="no"?>
<svg xmlns:xlink="http://www.w3.org/1999/xlink" id="wave" style="transform:rotate(180deg); transition: 0.3s" viewBox="0 0 1440 100" version="1.1" xmlns="http://www.w3.org/2000/svg"><defs><linearGradient id="sw-gradient-0" x1="0" x2="0" y1="1" y2="0"><stop stop-color="rgba(255, 249, 234, 1)" offset="0%"/><stop stop-color="rgba(255, 249, 234, 1)" offset="100%"/></linearGradient></defs><path style="transform:translate(0, 0px); opacity:1" fill="url(#sw-gradient-0)" d="M0,20L40,20C80,20,160,20,240,20C320,20,400,20,480,30C560,40,640,60,720,71.7C800,83,880,87,960,81.7C1040,77,1120,63,1200,50C1280,37,1360,23,1440,20C1520,17,1600,23,1680,35C1760,47,1840,63,1920,70C2000,77,2080,73,2160,71.7C2240,70,2320,70,2400,70C2480,70,2560,70,2640,71.7C2720,73,2800,77,2880,68.3C2960,60,3040,40,3120,35C3200,30,3280,40,3360,46.7C3440,53,3520,57,3600,55C3680,53,3760,47,3840,43.3C3920,40,4000,40,4080,41.7C4160,43,4240,47,4320,43.3C4400,40,4480,30,4560,28.3C4640,27,4720,33,4800,30C4880,27,4960,13,5040,16.7C5120,20,5200,40,5280,41.7C5360,43,5440,27,5520,25C5600,23,5680,37,5720,43.3L5760,50L5760,100L5720,100C5680,100,5600,100,5520,100C5440,100,5360,100,5280,100C5200,100,5120,100,5040,100C4960,100,4880,100,4800,100C4720,100,4640,100,4560,100C4480,100,4400,100,4320,100C4240,100,4160,100,4080,100C4000,100,3920,100,3840,100C3760,100,3680,100,3600,100C3520,100,3440,100,3360,100C3280,100,3200,100,3120,100C3040,100,2960,100,2880,100C2800,100,2720,100,2640,100C2560,100,2480,100,2400,100C2320,100,2240,100,2160,100C2080,100,2000,100,1920,100C1840,100,1760,100,1680,100C1600,100,1520,100,1440,100C1360,100,1280,100,1200,100C1120,100,1040,100,960,100C880,100,800,100,720,100C640,100,560,100,480,100C400,100,320,100,240,100C160,100,80,100,40,100L0,100Z"/></svg>